<?xml version="1.0" standalone="no"?>
<!DOCTYPE svg PUBLIC "-//W3C//DTD SVG 20010904//EN"
 "http://www.w3.org/TR/2001/REC-SVG-20010904/DTD/svg10.dtd">
<svg version="1.0" xmlns="http://www.w3.org/2000/svg"
 width="512.000000pt" height="512.000000pt" viewBox="0 0 512.000000 512.000000"
 preserveAspectRatio="xMidYMid meet">
<metadata>
Created by potrace 1.11, written by Peter Selinger 2001-2013
</metadata>
<g transform="translate(0.000000,512.000000) scale(0.100000,-0.100000)"
fill="#000000" stroke="none">
<path d="M968 4144 c-46 -24 -62 -69 -73 -199 -4 -38 -8 -90 -11 -115 -2 -25
-6 -76 -9 -115 -3 -38 -7 -90 -10 -115 -2 -25 -7 -81 -10 -125 -4 -44 -9 -88
-11 -97 -5 -17 81 -18 1714 -18 l1720 0 -3 63 c-2 34 -6 120 -10 191 -3 72
-12 144 -20 162 -27 66 12 63 -882 64 -444 0 -821 3 -838 6 -106 18 -143 45
-293 211 -59 65 -81 83 -115 92 -28 7 -228 10 -582 10 -457 0 -544 -2 -567
-15z"/>
<path d="M739 3191 c-85 -26 -99 -57 -94 -197 2 -60 6 -134 9 -164 3 -30 8
-95 11 -145 4 -49 8 -110 10 -135 6 -77 16 -232 20 -295 2 -33 7 -94 10 -135
3 -41 7 -106 10 -145 3 -38 7 -97 10 -129 3 -33 7 -96 10 -140 2 -45 6 -110 9
-146 3 -36 8 -101 11 -145 3 -44 8 -107 10 -140 3 -33 7 -87 10 -119 6 -77 40
-145 85 -171 35 -20 51 -20 1683 -23 1190 -2 1660 1 1690 9 24 6 55 25 73 45
40 41 48 79 59 274 3 58 8 125 10 150 2 25 7 92 10 150 3 58 8 132 10 165 3
33 7 96 10 140 2 44 7 114 10 155 3 41 7 111 10 155 6 106 15 237 20 305 2 30
7 102 10 160 4 58 8 128 11 155 11 131 13 276 3 305 -7 17 -25 38 -43 48 -29
16 -150 17 -1846 19 -998 1 -1827 -2 -1841 -6z"/>
</g>
</svg>
